<?xml version="1.0" encoding="UTF-8" standalone="no"?>
<svg
   xmlns:dc="http://purl.org/dc/elements/1.1/"
   xmlns:cc="http://creativecommons.org/ns#"
   xmlns:rdf="http://www.w3.org/1999/02/22-rdf-syntax-ns#"
   xmlns:svg="http://www.w3.org/2000/svg"
   xmlns="http://www.w3.org/2000/svg"
   xmlns:sodipodi="http://sodipodi.sourceforge.net/DTD/sodipodi-0.dtd"
   xmlns:inkscape="http://www.inkscape.org/namespaces/inkscape"
   width="256px"
   height="137px"
   viewBox="0 0 256 137"
   version="1.1"
   preserveAspectRatio="xMidYMid"
   id="svg12"
   sodipodi:docname="casewalls_sol.svg"
   inkscape:version="0.92.2 5c3e80d, 2017-08-06"
   inkscape:export-filename="/home/thanx/InkscapeWorkspace/casewalls/casewalls_sol.png"
   inkscape:export-xdpi="300"
   inkscape:export-ydpi="300">
  <metadata
     id="metadata18">
    <rdf:RDF>
      <cc:Work
         rdf:about="">
        <dc:format>image/svg+xml</dc:format>
        <dc:type
           rdf:resource="http://purl.org/dc/dcmitype/StillImage" />
        <dc:title />
      </cc:Work>
    </rdf:RDF>
  </metadata>
  <defs
     id="defs16" />
  <sodipodi:namedview
     pagecolor="#ffffff"
     bordercolor="#666666"
     borderopacity="1"
     objecttolerance="10"
     gridtolerance="10"
     guidetolerance="10"
     inkscape:pageopacity="0"
     inkscape:pageshadow="2"
     inkscape:window-width="1920"
     inkscape:window-height="1051"
     id="namedview14"
     showgrid="false"
     inkscape:zoom="1.0137039"
     inkscape:cx="475.04598"
     inkscape:cy="53.945358"
     inkscape:window-x="0"
     inkscape:window-y="0"
     inkscape:window-maximized="1"
     inkscape:current-layer="svg12"
     showguides="true"
     inkscape:guide-bbox="true">
    <sodipodi:guide
       position="507.05144,-3.9459256"
       orientation="0,1"
       id="guide4617"
       inkscape:locked="false" />
    <sodipodi:guide
       position="437.01126,131.20203"
       orientation="0,1"
       id="guide4619"
       inkscape:locked="false" />
  </sodipodi:namedview>
  <g
     id="g4570">
    <g
       transform="translate(-10.111434,5.4256477)"
       id="g4562">
      <path
         style="fill:#005a9c"
         inkscape:connector-curvature="0"
         id="path2"
         d="M 155.54528,0.56396871 179.76388,82.917662 203.99253,0.56396871 h 17.53048 L 181.43039,135.86449 h -1.66851 L 154.70399,52.018964 129.64812,135.86449 h -1.67053 L 87.891012,0.56396871 H 105.43152 L 129.64812,82.917662 146.02007,27.46505 138.00276,0.56597651 h 17.54252 z" />
      <g
         id="g4556"
         transform="translate(0,4.5429894)">
        <path
           d="m 115.38225,-4.0295005 2.83909,17.2674505 -10.05528,19.241161 c 0,0 -3.86309,-8.159874 -10.274138,-12.677522 -5.40712,-3.812894 -8.92887,-4.636109 -14.42836,-3.505694 -7.08166,1.465726 -15.09094,9.91473 -18.58861,20.339451 -4.18434,12.468706 -4.2245,18.508298 -4.37308,24.049945 -0.2309,8.89073 1.16455,14.14124 1.16455,14.14124 0,0 -6.10384,-11.296126 -6.04562,-27.840753 0.0361,-11.810134 1.90143,-22.523984 7.36076,-33.087247 4.81079,-9.2902903 11.94666,-14.86607069 18.28944,-15.5166119 6.5536,-0.6886901 11.74187,2.46763931 15.7435,5.8990432 4.194378,3.5900239 8.459038,11.4406897 8.459038,11.4406897 z"
           id="path6"
           inkscape:connector-curvature="0"
           style="fill:#221b0a" />
        <path
           d="m 116.61105,93.700256 c 0,0 -4.43332,7.945044 -7.20615,11.002984 -2.76882,3.05995 -7.72819,8.45101 -13.846088,11.15357 -6.12191,2.69653 -9.32844,3.20853 -15.38209,2.62224 -6.0436,-0.58227 -11.65954,-4.07994 -13.62522,-5.54968 -1.96568,-1.44966 -6.99934,-5.75046 -9.83241,-9.74607 -2.85113,-4.015684 -7.2965,-12.03702 -7.2965,-12.03702 0,0 2.47567,8.033376 4.02974,11.4427 0.88747,1.96167 3.6342,7.9611 7.52741,13.19555 3.62415,4.86902 10.67168,13.25979 21.38754,15.14917 10.71385,1.89741 18.074608,-2.90936 19.891698,-4.07793 1.82112,-1.16053 5.66011,-4.37308 8.09563,-6.97725 2.53791,-2.7126 4.93728,-6.18215 6.25644,-8.24822 0.97782,-1.52195 2.562,-4.58993 2.562,-4.58993 z"
           id="path8"
           inkscape:connector-curvature="0"
           style="fill:#221b0a" />
      </g>
    </g>
    <path
       d="m 271.14479,158.62011 -135.38201,76.6668 V 175.66438 L 220.1416,129.1977 Z M 280.4122,150.26 V -9.9431378 L 230.89959,18.636798 V 121.68008 Z m -291.955921,8.36011 135.382001,76.60198 V 175.59958 L 39.459452,129.1977 Z M -20.811133,150.26 V -9.9431378 L 28.701479,18.636798 V 121.68008 Z m 5.767819,-170.57227 138.881594,-78.546181 v 57.678301 l -88.980126,48.9293543 -0.712877,0.38884 z m 289.622874,0 -138.81678,-78.546181 v 57.678301 l 88.91532,48.9941583 0.71287,0.388841 z"
       id="path4"
       inkscape:connector-curvature="0"
       style="fill:#005a9c;fill-opacity:1;stroke-width:1.34170926" />
  </g>
  <text
     xml:space="preserve"
     style="font-style:normal;font-variant:normal;font-weight:bold;font-stretch:normal;font-size:205.33334351px;line-height:25px;font-family:Calibri;-inkscape-font-specification:'Calibri Bold';letter-spacing:0px;word-spacing:0px;fill:#005a9c;fill-opacity:1;stroke:none;stroke-width:1px;stroke-linecap:butt;stroke-linejoin:miter;stroke-opacity:1"
     x="282.50681"
     y="138.15573"
     id="text4593"><tspan
       sodipodi:role="line"
       id="tspan4591"
       x="282.50681"
       y="138.15573"
       rotate="0 0 0 0 0 0 0 0 0 0"
       dx="0 0 0 0 0 0 0 0 0">SOLUTIONS</tspan></text>
</svg>
